<mxfile host="app.diagrams.net" modified="2024-01-15T14:47:14.326Z" agent="Mozilla/5.0 (Windows NT 10.0; Win64; x64) AppleWebKit/537.36 (KHTML, like Gecko) Chrome/120.0.0.0 Safari/537.36 Edg/120.0.0.0" etag="242BukmFBnSJvW9eK4Ss" version="22.1.18" type="github">
  <diagram id="R2lEEEUBdFMjLlhIrx00" name="Page-1">
    <mxGraphModel dx="2533" dy="1180" grid="1" gridSize="10" guides="1" tooltips="1" connect="1" arrows="1" fold="1" page="1" pageScale="1" pageWidth="850" pageHeight="1100" math="0" shadow="0" extFonts="Permanent Marker^https://fonts.googleapis.com/css?family=Permanent+Marker">
      <root>
        <mxCell id="0" />
        <mxCell id="1" parent="0" />
        <mxCell id="0erdpwms0wv-roHKmE2V-94" value="" style="group" parent="1" vertex="1" connectable="0">
          <mxGeometry x="-70" y="448" width="1260" height="979" as="geometry" />
        </mxCell>
        <mxCell id="UZvihDDz6vG9pODjjH-z-27" value="servicios_transporte" style="rounded=0;whiteSpace=wrap;html=1;labelBackgroundColor=none;fillColor=#fff2cc;strokeColor=#d6b656;" parent="0erdpwms0wv-roHKmE2V-94" vertex="1">
          <mxGeometry x="272" y="349" width="120" height="60" as="geometry" />
        </mxCell>
        <mxCell id="UZvihDDz6vG9pODjjH-z-28" value="ejecuta" style="rhombus;whiteSpace=wrap;html=1;labelBackgroundColor=none;fillColor=#f8cecc;strokeColor=#b85450;" parent="0erdpwms0wv-roHKmE2V-94" vertex="1">
          <mxGeometry x="292" y="511" width="80" height="40" as="geometry" />
        </mxCell>
        <mxCell id="UZvihDDz6vG9pODjjH-z-29" value="transportistas" style="rounded=0;whiteSpace=wrap;html=1;labelBackgroundColor=none;fillColor=#fff2cc;strokeColor=#d6b656;" parent="0erdpwms0wv-roHKmE2V-94" vertex="1">
          <mxGeometry x="272" y="611" width="120" height="60" as="geometry" />
        </mxCell>
        <mxCell id="UZvihDDz6vG9pODjjH-z-30" value="solicita" style="rhombus;whiteSpace=wrap;html=1;labelBackgroundColor=none;fillColor=#f8cecc;strokeColor=#b85450;" parent="0erdpwms0wv-roHKmE2V-94" vertex="1">
          <mxGeometry x="615" y="359" width="80" height="40" as="geometry" />
        </mxCell>
        <mxCell id="UZvihDDz6vG9pODjjH-z-32" value="usuarios" style="rounded=0;whiteSpace=wrap;html=1;labelBackgroundColor=none;fillColor=#fff2cc;strokeColor=#d6b656;" parent="0erdpwms0wv-roHKmE2V-94" vertex="1">
          <mxGeometry x="905" y="349" width="120" height="60" as="geometry" />
        </mxCell>
        <mxCell id="UZvihDDz6vG9pODjjH-z-33" value="" style="endArrow=none;html=1;rounded=0;entryX=0;entryY=0.5;entryDx=0;entryDy=0;exitX=1;exitY=0.5;exitDx=0;exitDy=0;labelBackgroundColor=none;fontColor=default;" parent="0erdpwms0wv-roHKmE2V-94" source="UZvihDDz6vG9pODjjH-z-30" target="UZvihDDz6vG9pODjjH-z-32" edge="1">
          <mxGeometry width="50" height="50" relative="1" as="geometry">
            <mxPoint x="567" y="419" as="sourcePoint" />
            <mxPoint x="617" y="369" as="targetPoint" />
            <Array as="points" />
          </mxGeometry>
        </mxCell>
        <mxCell id="UZvihDDz6vG9pODjjH-z-34" value="" style="endArrow=none;html=1;rounded=0;entryX=0;entryY=0.5;entryDx=0;entryDy=0;exitX=1;exitY=0.5;exitDx=0;exitDy=0;labelBackgroundColor=none;fontColor=default;" parent="0erdpwms0wv-roHKmE2V-94" source="UZvihDDz6vG9pODjjH-z-27" target="UZvihDDz6vG9pODjjH-z-30" edge="1">
          <mxGeometry width="50" height="50" relative="1" as="geometry">
            <mxPoint x="407" y="409" as="sourcePoint" />
            <mxPoint x="457" y="359" as="targetPoint" />
          </mxGeometry>
        </mxCell>
        <mxCell id="UZvihDDz6vG9pODjjH-z-36" value="" style="endArrow=none;html=1;rounded=0;entryX=0.5;entryY=1;entryDx=0;entryDy=0;exitX=0.5;exitY=0;exitDx=0;exitDy=0;labelBackgroundColor=none;fontColor=default;" parent="0erdpwms0wv-roHKmE2V-94" source="UZvihDDz6vG9pODjjH-z-29" target="UZvihDDz6vG9pODjjH-z-28" edge="1">
          <mxGeometry width="50" height="50" relative="1" as="geometry">
            <mxPoint x="302" y="579" as="sourcePoint" />
            <mxPoint x="352" y="529" as="targetPoint" />
          </mxGeometry>
        </mxCell>
        <mxCell id="UZvihDDz6vG9pODjjH-z-37" value="" style="endArrow=none;html=1;rounded=0;entryX=0.5;entryY=1;entryDx=0;entryDy=0;exitX=0.5;exitY=0;exitDx=0;exitDy=0;labelBackgroundColor=none;fontColor=default;" parent="0erdpwms0wv-roHKmE2V-94" source="UZvihDDz6vG9pODjjH-z-28" target="UZvihDDz6vG9pODjjH-z-27" edge="1">
          <mxGeometry width="50" height="50" relative="1" as="geometry">
            <mxPoint x="307" y="469" as="sourcePoint" />
            <mxPoint x="357" y="419" as="targetPoint" />
          </mxGeometry>
        </mxCell>
        <mxCell id="UZvihDDz6vG9pODjjH-z-38" value="1" style="text;html=1;strokeColor=none;fillColor=none;align=center;verticalAlign=middle;whiteSpace=wrap;rounded=0;labelBackgroundColor=none;" parent="0erdpwms0wv-roHKmE2V-94" vertex="1">
          <mxGeometry x="342" y="686" width="20" height="20" as="geometry" />
        </mxCell>
        <mxCell id="UZvihDDz6vG9pODjjH-z-39" value="N" style="text;html=1;strokeColor=none;fillColor=none;align=center;verticalAlign=middle;whiteSpace=wrap;rounded=0;labelBackgroundColor=none;" parent="0erdpwms0wv-roHKmE2V-94" vertex="1">
          <mxGeometry x="292" y="409" width="20" height="20" as="geometry" />
        </mxCell>
        <mxCell id="UZvihDDz6vG9pODjjH-z-40" value="N" style="text;html=1;strokeColor=none;fillColor=none;align=center;verticalAlign=middle;whiteSpace=wrap;rounded=0;labelBackgroundColor=none;" parent="0erdpwms0wv-roHKmE2V-94" vertex="1">
          <mxGeometry x="402" y="359" width="20" height="20" as="geometry" />
        </mxCell>
        <mxCell id="UZvihDDz6vG9pODjjH-z-43" value="pontua" style="rhombus;whiteSpace=wrap;html=1;labelBackgroundColor=none;fillColor=#f8cecc;strokeColor=#b85450;" parent="0erdpwms0wv-roHKmE2V-94" vertex="1">
          <mxGeometry x="925" y="226" width="80" height="40" as="geometry" />
        </mxCell>
        <mxCell id="UZvihDDz6vG9pODjjH-z-56" value="1" style="text;html=1;strokeColor=none;fillColor=none;align=center;verticalAlign=middle;whiteSpace=wrap;rounded=0;labelBackgroundColor=none;" parent="0erdpwms0wv-roHKmE2V-94" vertex="1">
          <mxGeometry x="970" y="149" width="20" height="20" as="geometry" />
        </mxCell>
        <mxCell id="UZvihDDz6vG9pODjjH-z-62" value="id_pago" style="ellipse;whiteSpace=wrap;html=1;labelBackgroundColor=none;fillColor=#e1d5e7;strokeColor=#9673a6;" parent="0erdpwms0wv-roHKmE2V-94" vertex="1">
          <mxGeometry y="185" width="130" height="30" as="geometry" />
        </mxCell>
        <mxCell id="VUBh9zfn_N3HPbpOxdJ6-4" value="id_transportista" style="ellipse;whiteSpace=wrap;html=1;labelBackgroundColor=none;fillColor=#d5e8d4;strokeColor=#82b366;" parent="0erdpwms0wv-roHKmE2V-94" vertex="1">
          <mxGeometry x="20" y="559" width="130" height="30" as="geometry" />
        </mxCell>
        <mxCell id="VUBh9zfn_N3HPbpOxdJ6-15" value="id_usuario" style="ellipse;whiteSpace=wrap;html=1;labelBackgroundColor=none;fillColor=#d5e8d4;strokeColor=#82b366;" parent="0erdpwms0wv-roHKmE2V-94" vertex="1">
          <mxGeometry x="1130" y="185" width="130" height="30" as="geometry" />
        </mxCell>
        <mxCell id="VUBh9zfn_N3HPbpOxdJ6-16" value="segundo_apellido" style="ellipse;whiteSpace=wrap;html=1;labelBackgroundColor=none;" parent="0erdpwms0wv-roHKmE2V-94" vertex="1">
          <mxGeometry x="1130" y="309" width="130" height="30" as="geometry" />
        </mxCell>
        <mxCell id="VUBh9zfn_N3HPbpOxdJ6-17" value="primer_apellido" style="ellipse;whiteSpace=wrap;html=1;labelBackgroundColor=none;" parent="0erdpwms0wv-roHKmE2V-94" vertex="1">
          <mxGeometry x="1130" y="266" width="130" height="30" as="geometry" />
        </mxCell>
        <mxCell id="VUBh9zfn_N3HPbpOxdJ6-18" value="nombre_usuario" style="ellipse;whiteSpace=wrap;html=1;labelBackgroundColor=none;" parent="0erdpwms0wv-roHKmE2V-94" vertex="1">
          <mxGeometry x="1130" y="226" width="130" height="30" as="geometry" />
        </mxCell>
        <mxCell id="VUBh9zfn_N3HPbpOxdJ6-19" value="edad" style="ellipse;whiteSpace=wrap;html=1;labelBackgroundColor=none;" parent="0erdpwms0wv-roHKmE2V-94" vertex="1">
          <mxGeometry x="1130" y="390" width="130" height="30" as="geometry" />
        </mxCell>
        <mxCell id="VUBh9zfn_N3HPbpOxdJ6-20" value="identificacion" style="ellipse;whiteSpace=wrap;html=1;labelBackgroundColor=none;" parent="0erdpwms0wv-roHKmE2V-94" vertex="1">
          <mxGeometry x="1130" y="349" width="130" height="30" as="geometry" />
        </mxCell>
        <mxCell id="VUBh9zfn_N3HPbpOxdJ6-29" value="id_evaluacion" style="ellipse;whiteSpace=wrap;html=1;labelBackgroundColor=none;fillColor=#d5e8d4;strokeColor=#82b366;" parent="0erdpwms0wv-roHKmE2V-94" vertex="1">
          <mxGeometry x="680" width="130" height="30" as="geometry" />
        </mxCell>
        <mxCell id="VUBh9zfn_N3HPbpOxdJ6-30" value="id_usuario" style="ellipse;whiteSpace=wrap;html=1;labelBackgroundColor=none;" parent="0erdpwms0wv-roHKmE2V-94" vertex="1">
          <mxGeometry x="680" y="46" width="130" height="30" as="geometry" />
        </mxCell>
        <mxCell id="VUBh9zfn_N3HPbpOxdJ6-31" value="id_servicio" style="ellipse;whiteSpace=wrap;html=1;labelBackgroundColor=none;" parent="0erdpwms0wv-roHKmE2V-94" vertex="1">
          <mxGeometry x="680" y="86" width="130" height="30" as="geometry" />
        </mxCell>
        <mxCell id="VUBh9zfn_N3HPbpOxdJ6-36" value="valoracion" style="ellipse;whiteSpace=wrap;html=1;labelBackgroundColor=none;" parent="0erdpwms0wv-roHKmE2V-94" vertex="1">
          <mxGeometry x="680" y="126" width="130" height="30" as="geometry" />
        </mxCell>
        <mxCell id="VUBh9zfn_N3HPbpOxdJ6-37" value="coches" style="rounded=0;whiteSpace=wrap;html=1;labelBackgroundColor=none;fillColor=#fff2cc;strokeColor=#d6b656;" parent="0erdpwms0wv-roHKmE2V-94" vertex="1">
          <mxGeometry x="272" y="854" width="120" height="60" as="geometry" />
        </mxCell>
        <mxCell id="VUBh9zfn_N3HPbpOxdJ6-38" value="" style="endArrow=none;html=1;rounded=0;entryX=0.5;entryY=1;entryDx=0;entryDy=0;exitX=0.5;exitY=0;exitDx=0;exitDy=0;" parent="0erdpwms0wv-roHKmE2V-94" source="VUBh9zfn_N3HPbpOxdJ6-39" target="UZvihDDz6vG9pODjjH-z-29" edge="1">
          <mxGeometry width="50" height="50" relative="1" as="geometry">
            <mxPoint x="342" y="939" as="sourcePoint" />
            <mxPoint x="392" y="889" as="targetPoint" />
            <Array as="points" />
          </mxGeometry>
        </mxCell>
        <mxCell id="VUBh9zfn_N3HPbpOxdJ6-40" value="" style="endArrow=none;html=1;rounded=0;entryX=0.5;entryY=1;entryDx=0;entryDy=0;exitX=0.5;exitY=0;exitDx=0;exitDy=0;" parent="0erdpwms0wv-roHKmE2V-94" source="VUBh9zfn_N3HPbpOxdJ6-37" target="VUBh9zfn_N3HPbpOxdJ6-39" edge="1">
          <mxGeometry width="50" height="50" relative="1" as="geometry">
            <mxPoint x="332" y="949" as="sourcePoint" />
            <mxPoint x="332" y="839" as="targetPoint" />
            <Array as="points" />
          </mxGeometry>
        </mxCell>
        <mxCell id="VUBh9zfn_N3HPbpOxdJ6-39" value="dirige" style="rhombus;whiteSpace=wrap;html=1;labelBackgroundColor=none;fillColor=#f8cecc;strokeColor=#b85450;" parent="0erdpwms0wv-roHKmE2V-94" vertex="1">
          <mxGeometry x="292" y="749" width="80" height="40" as="geometry" />
        </mxCell>
        <mxCell id="VUBh9zfn_N3HPbpOxdJ6-41" value="id_transportista" style="ellipse;whiteSpace=wrap;html=1;labelBackgroundColor=none;" parent="0erdpwms0wv-roHKmE2V-94" vertex="1">
          <mxGeometry x="470" y="799" width="130" height="30" as="geometry" />
        </mxCell>
        <mxCell id="VUBh9zfn_N3HPbpOxdJ6-42" value="color_coche" style="ellipse;whiteSpace=wrap;html=1;labelBackgroundColor=none;" parent="0erdpwms0wv-roHKmE2V-94" vertex="1">
          <mxGeometry x="470" y="919" width="130" height="30" as="geometry" />
        </mxCell>
        <mxCell id="VUBh9zfn_N3HPbpOxdJ6-43" value="matricula_coche" style="ellipse;whiteSpace=wrap;html=1;labelBackgroundColor=none;" parent="0erdpwms0wv-roHKmE2V-94" vertex="1">
          <mxGeometry x="470" y="839" width="130" height="30" as="geometry" />
        </mxCell>
        <mxCell id="VUBh9zfn_N3HPbpOxdJ6-44" value="id_evaluacion" style="ellipse;whiteSpace=wrap;html=1;labelBackgroundColor=none;fillColor=#e1d5e7;strokeColor=#9673a6;" parent="0erdpwms0wv-roHKmE2V-94" vertex="1">
          <mxGeometry y="139" width="130" height="30" as="geometry" />
        </mxCell>
        <mxCell id="VUBh9zfn_N3HPbpOxdJ6-49" value="id_coche" style="ellipse;whiteSpace=wrap;html=1;labelBackgroundColor=none;fillColor=#d5e8d4;strokeColor=#82b366;" parent="0erdpwms0wv-roHKmE2V-94" vertex="1">
          <mxGeometry x="470" y="759" width="130" height="30" as="geometry" />
        </mxCell>
        <mxCell id="VUBh9zfn_N3HPbpOxdJ6-50" value="modelo_coche" style="ellipse;whiteSpace=wrap;html=1;labelBackgroundColor=none;" parent="0erdpwms0wv-roHKmE2V-94" vertex="1">
          <mxGeometry x="470" y="879" width="130" height="30" as="geometry" />
        </mxCell>
        <mxCell id="4h6LSxT9tbR2PbQqWZN6-1" value="id_usuario" style="ellipse;whiteSpace=wrap;html=1;labelBackgroundColor=none;fillColor=#e1d5e7;strokeColor=#9673a6;" parent="0erdpwms0wv-roHKmE2V-94" vertex="1">
          <mxGeometry y="50" width="130" height="30" as="geometry" />
        </mxCell>
        <mxCell id="4h6LSxT9tbR2PbQqWZN6-2" value="id_transportista" style="ellipse;whiteSpace=wrap;html=1;labelBackgroundColor=none;fillColor=#e1d5e7;strokeColor=#9673a6;" parent="0erdpwms0wv-roHKmE2V-94" vertex="1">
          <mxGeometry y="95" width="130" height="30" as="geometry" />
        </mxCell>
        <mxCell id="93SrUeHEuioZLeFlsOgE-1" value="id_servicio" style="ellipse;whiteSpace=wrap;html=1;labelBackgroundColor=none;fillColor=#d5e8d4;strokeColor=#82b366;" parent="0erdpwms0wv-roHKmE2V-94" vertex="1">
          <mxGeometry width="130" height="30" as="geometry" />
        </mxCell>
        <mxCell id="0erdpwms0wv-roHKmE2V-2" value="correo_electronico" style="ellipse;whiteSpace=wrap;html=1;labelBackgroundColor=none;" parent="0erdpwms0wv-roHKmE2V-94" vertex="1">
          <mxGeometry x="1130" y="431" width="130" height="30" as="geometry" />
        </mxCell>
        <mxCell id="0erdpwms0wv-roHKmE2V-3" value="contraseña" style="ellipse;whiteSpace=wrap;html=1;labelBackgroundColor=none;" parent="0erdpwms0wv-roHKmE2V-94" vertex="1">
          <mxGeometry x="1130" y="469" width="130" height="30" as="geometry" />
        </mxCell>
        <mxCell id="0erdpwms0wv-roHKmE2V-4" value="direccion" style="ellipse;whiteSpace=wrap;html=1;labelBackgroundColor=none;" parent="0erdpwms0wv-roHKmE2V-94" vertex="1">
          <mxGeometry x="1130" y="511" width="130" height="30" as="geometry" />
        </mxCell>
        <mxCell id="0erdpwms0wv-roHKmE2V-5" value="numero_telefonico" style="ellipse;whiteSpace=wrap;html=1;labelBackgroundColor=none;" parent="0erdpwms0wv-roHKmE2V-94" vertex="1">
          <mxGeometry x="1130" y="554" width="130" height="30" as="geometry" />
        </mxCell>
        <mxCell id="0erdpwms0wv-roHKmE2V-6" value="segundo_apellido" style="ellipse;whiteSpace=wrap;html=1;labelBackgroundColor=none;" parent="0erdpwms0wv-roHKmE2V-94" vertex="1">
          <mxGeometry x="20" y="719" width="130" height="30" as="geometry" />
        </mxCell>
        <mxCell id="0erdpwms0wv-roHKmE2V-7" value="primer_apellido" style="ellipse;whiteSpace=wrap;html=1;labelBackgroundColor=none;" parent="0erdpwms0wv-roHKmE2V-94" vertex="1">
          <mxGeometry x="20" y="679" width="130" height="30" as="geometry" />
        </mxCell>
        <mxCell id="0erdpwms0wv-roHKmE2V-8" value="nombre_transportista" style="ellipse;whiteSpace=wrap;html=1;labelBackgroundColor=none;" parent="0erdpwms0wv-roHKmE2V-94" vertex="1">
          <mxGeometry x="20" y="639" width="130" height="30" as="geometry" />
        </mxCell>
        <mxCell id="0erdpwms0wv-roHKmE2V-9" value="edad" style="ellipse;whiteSpace=wrap;html=1;labelBackgroundColor=none;" parent="0erdpwms0wv-roHKmE2V-94" vertex="1">
          <mxGeometry x="20" y="809" width="130" height="30" as="geometry" />
        </mxCell>
        <mxCell id="0erdpwms0wv-roHKmE2V-10" value="identificacion" style="ellipse;whiteSpace=wrap;html=1;labelBackgroundColor=none;" parent="0erdpwms0wv-roHKmE2V-94" vertex="1">
          <mxGeometry x="20" y="764" width="130" height="30" as="geometry" />
        </mxCell>
        <mxCell id="0erdpwms0wv-roHKmE2V-11" value="correo_electronico" style="ellipse;whiteSpace=wrap;html=1;labelBackgroundColor=none;" parent="0erdpwms0wv-roHKmE2V-94" vertex="1">
          <mxGeometry x="20" y="854" width="130" height="30" as="geometry" />
        </mxCell>
        <mxCell id="0erdpwms0wv-roHKmE2V-12" value="contraseña" style="ellipse;whiteSpace=wrap;html=1;labelBackgroundColor=none;" parent="0erdpwms0wv-roHKmE2V-94" vertex="1">
          <mxGeometry x="20" y="899" width="130" height="30" as="geometry" />
        </mxCell>
        <mxCell id="0erdpwms0wv-roHKmE2V-14" value="numero_telefonico" style="ellipse;whiteSpace=wrap;html=1;labelBackgroundColor=none;" parent="0erdpwms0wv-roHKmE2V-94" vertex="1">
          <mxGeometry x="22" y="949" width="130" height="30" as="geometry" />
        </mxCell>
        <mxCell id="0erdpwms0wv-roHKmE2V-16" value="id_coche" style="ellipse;whiteSpace=wrap;html=1;labelBackgroundColor=none;fillColor=#e1d5e7;strokeColor=#9673a6;" parent="0erdpwms0wv-roHKmE2V-94" vertex="1">
          <mxGeometry x="20" y="599" width="130" height="30" as="geometry" />
        </mxCell>
        <mxCell id="0erdpwms0wv-roHKmE2V-18" value="id_pago" style="ellipse;whiteSpace=wrap;html=1;labelBackgroundColor=none;fillColor=#d5e8d4;strokeColor=#82b366;" parent="0erdpwms0wv-roHKmE2V-94" vertex="1">
          <mxGeometry x="710" y="584" width="130" height="30" as="geometry" />
        </mxCell>
        <mxCell id="0erdpwms0wv-roHKmE2V-19" value="id_servicio" style="ellipse;whiteSpace=wrap;html=1;labelBackgroundColor=none;" parent="0erdpwms0wv-roHKmE2V-94" vertex="1">
          <mxGeometry x="710" y="634" width="130" height="30" as="geometry" />
        </mxCell>
        <mxCell id="0erdpwms0wv-roHKmE2V-20" value="id_usuario" style="ellipse;whiteSpace=wrap;html=1;labelBackgroundColor=none;" parent="0erdpwms0wv-roHKmE2V-94" vertex="1">
          <mxGeometry x="710" y="684" width="130" height="30" as="geometry" />
        </mxCell>
        <mxCell id="0erdpwms0wv-roHKmE2V-21" value="fecha" style="ellipse;whiteSpace=wrap;html=1;labelBackgroundColor=none;" parent="0erdpwms0wv-roHKmE2V-94" vertex="1">
          <mxGeometry x="710" y="734" width="130" height="30" as="geometry" />
        </mxCell>
        <mxCell id="0erdpwms0wv-roHKmE2V-22" value="monto_pago" style="ellipse;whiteSpace=wrap;html=1;labelBackgroundColor=none;" parent="0erdpwms0wv-roHKmE2V-94" vertex="1">
          <mxGeometry x="710" y="784" width="130" height="30" as="geometry" />
        </mxCell>
        <mxCell id="0erdpwms0wv-roHKmE2V-23" value="evaluaciones" style="rounded=0;whiteSpace=wrap;html=1;labelBackgroundColor=none;fillColor=#fff2cc;strokeColor=#d6b656;" parent="0erdpwms0wv-roHKmE2V-94" vertex="1">
          <mxGeometry x="905" y="81" width="120" height="60" as="geometry" />
        </mxCell>
        <mxCell id="0erdpwms0wv-roHKmE2V-24" value="pagos" style="rounded=0;whiteSpace=wrap;html=1;labelBackgroundColor=none;fillColor=#fff2cc;strokeColor=#d6b656;" parent="0erdpwms0wv-roHKmE2V-94" vertex="1">
          <mxGeometry x="905" y="669" width="120" height="60" as="geometry" />
        </mxCell>
        <mxCell id="0erdpwms0wv-roHKmE2V-25" value="fecha" style="ellipse;whiteSpace=wrap;html=1;labelBackgroundColor=none;" parent="0erdpwms0wv-roHKmE2V-94" vertex="1">
          <mxGeometry x="680" y="166" width="130" height="30" as="geometry" />
        </mxCell>
        <mxCell id="0erdpwms0wv-roHKmE2V-26" value="mercancia" style="ellipse;whiteSpace=wrap;html=1;labelBackgroundColor=none;" parent="0erdpwms0wv-roHKmE2V-94" vertex="1">
          <mxGeometry x="2" y="318" width="130" height="30" as="geometry" />
        </mxCell>
        <mxCell id="0erdpwms0wv-roHKmE2V-27" value="fecha" style="ellipse;whiteSpace=wrap;html=1;labelBackgroundColor=none;" parent="0erdpwms0wv-roHKmE2V-94" vertex="1">
          <mxGeometry y="360" width="130" height="30" as="geometry" />
        </mxCell>
        <mxCell id="0erdpwms0wv-roHKmE2V-31" value="ejecuta" style="rhombus;whiteSpace=wrap;html=1;labelBackgroundColor=none;fillColor=#f8cecc;strokeColor=#b85450;" parent="0erdpwms0wv-roHKmE2V-94" vertex="1">
          <mxGeometry x="925" y="531" width="80" height="40" as="geometry" />
        </mxCell>
        <mxCell id="0erdpwms0wv-roHKmE2V-33" value="1" style="text;html=1;strokeColor=none;fillColor=none;align=center;verticalAlign=middle;whiteSpace=wrap;rounded=0;labelBackgroundColor=none;" parent="0erdpwms0wv-roHKmE2V-94" vertex="1">
          <mxGeometry x="870" y="354" width="20" height="20" as="geometry" />
        </mxCell>
        <mxCell id="0erdpwms0wv-roHKmE2V-38" value="ubicacion_inicial" style="ellipse;whiteSpace=wrap;html=1;labelBackgroundColor=none;" parent="0erdpwms0wv-roHKmE2V-94" vertex="1">
          <mxGeometry x="2" y="233" width="130" height="30" as="geometry" />
        </mxCell>
        <mxCell id="0erdpwms0wv-roHKmE2V-40" value="ubicacion-_final" style="ellipse;whiteSpace=wrap;html=1;labelBackgroundColor=none;" parent="0erdpwms0wv-roHKmE2V-94" vertex="1">
          <mxGeometry y="278" width="130" height="30" as="geometry" />
        </mxCell>
        <mxCell id="0erdpwms0wv-roHKmE2V-42" value="" style="endArrow=none;html=1;rounded=0;entryX=1;entryY=0.5;entryDx=0;entryDy=0;exitX=0;exitY=0.5;exitDx=0;exitDy=0;" parent="0erdpwms0wv-roHKmE2V-94" source="UZvihDDz6vG9pODjjH-z-29" target="VUBh9zfn_N3HPbpOxdJ6-4" edge="1">
          <mxGeometry width="50" height="50" relative="1" as="geometry">
            <mxPoint x="470" y="869" as="sourcePoint" />
            <mxPoint x="520" y="819" as="targetPoint" />
          </mxGeometry>
        </mxCell>
        <mxCell id="0erdpwms0wv-roHKmE2V-44" value="" style="endArrow=none;html=1;rounded=0;entryX=1;entryY=0.5;entryDx=0;entryDy=0;exitX=0;exitY=0.5;exitDx=0;exitDy=0;" parent="0erdpwms0wv-roHKmE2V-94" source="UZvihDDz6vG9pODjjH-z-29" target="0erdpwms0wv-roHKmE2V-16" edge="1">
          <mxGeometry width="50" height="50" relative="1" as="geometry">
            <mxPoint x="470" y="869" as="sourcePoint" />
            <mxPoint x="520" y="819" as="targetPoint" />
          </mxGeometry>
        </mxCell>
        <mxCell id="0erdpwms0wv-roHKmE2V-45" value="" style="endArrow=none;html=1;rounded=0;entryX=1;entryY=0.5;entryDx=0;entryDy=0;exitX=0;exitY=0.5;exitDx=0;exitDy=0;" parent="0erdpwms0wv-roHKmE2V-94" source="UZvihDDz6vG9pODjjH-z-29" target="0erdpwms0wv-roHKmE2V-8" edge="1">
          <mxGeometry width="50" height="50" relative="1" as="geometry">
            <mxPoint x="470" y="869" as="sourcePoint" />
            <mxPoint x="520" y="819" as="targetPoint" />
          </mxGeometry>
        </mxCell>
        <mxCell id="0erdpwms0wv-roHKmE2V-46" value="" style="endArrow=none;html=1;rounded=0;entryX=1;entryY=0.5;entryDx=0;entryDy=0;exitX=0;exitY=0.5;exitDx=0;exitDy=0;" parent="0erdpwms0wv-roHKmE2V-94" source="UZvihDDz6vG9pODjjH-z-27" target="93SrUeHEuioZLeFlsOgE-1" edge="1">
          <mxGeometry width="50" height="50" relative="1" as="geometry">
            <mxPoint x="490" y="329" as="sourcePoint" />
            <mxPoint x="540" y="279" as="targetPoint" />
          </mxGeometry>
        </mxCell>
        <mxCell id="0erdpwms0wv-roHKmE2V-47" value="" style="endArrow=none;html=1;rounded=0;entryX=1;entryY=0.5;entryDx=0;entryDy=0;" parent="0erdpwms0wv-roHKmE2V-94" target="4h6LSxT9tbR2PbQqWZN6-1" edge="1">
          <mxGeometry width="50" height="50" relative="1" as="geometry">
            <mxPoint x="270" y="379" as="sourcePoint" />
            <mxPoint x="540" y="279" as="targetPoint" />
          </mxGeometry>
        </mxCell>
        <mxCell id="0erdpwms0wv-roHKmE2V-48" value="" style="endArrow=none;html=1;rounded=0;entryX=1;entryY=0.5;entryDx=0;entryDy=0;exitX=0;exitY=0.5;exitDx=0;exitDy=0;" parent="0erdpwms0wv-roHKmE2V-94" source="UZvihDDz6vG9pODjjH-z-27" target="4h6LSxT9tbR2PbQqWZN6-2" edge="1">
          <mxGeometry width="50" height="50" relative="1" as="geometry">
            <mxPoint x="490" y="329" as="sourcePoint" />
            <mxPoint x="540" y="279" as="targetPoint" />
          </mxGeometry>
        </mxCell>
        <mxCell id="0erdpwms0wv-roHKmE2V-49" value="" style="endArrow=none;html=1;rounded=0;entryX=1;entryY=0.5;entryDx=0;entryDy=0;exitX=0;exitY=0.5;exitDx=0;exitDy=0;" parent="0erdpwms0wv-roHKmE2V-94" source="UZvihDDz6vG9pODjjH-z-27" target="UZvihDDz6vG9pODjjH-z-62" edge="1">
          <mxGeometry width="50" height="50" relative="1" as="geometry">
            <mxPoint x="330" y="349" as="sourcePoint" />
            <mxPoint x="540" y="279" as="targetPoint" />
          </mxGeometry>
        </mxCell>
        <mxCell id="0erdpwms0wv-roHKmE2V-50" value="" style="endArrow=none;html=1;rounded=0;entryX=1;entryY=0.5;entryDx=0;entryDy=0;exitX=0;exitY=0.5;exitDx=0;exitDy=0;" parent="0erdpwms0wv-roHKmE2V-94" source="UZvihDDz6vG9pODjjH-z-27" target="VUBh9zfn_N3HPbpOxdJ6-44" edge="1">
          <mxGeometry width="50" height="50" relative="1" as="geometry">
            <mxPoint x="490" y="329" as="sourcePoint" />
            <mxPoint x="540" y="279" as="targetPoint" />
          </mxGeometry>
        </mxCell>
        <mxCell id="0erdpwms0wv-roHKmE2V-51" value="" style="endArrow=none;html=1;rounded=0;entryX=1;entryY=0.5;entryDx=0;entryDy=0;" parent="0erdpwms0wv-roHKmE2V-94" target="0erdpwms0wv-roHKmE2V-38" edge="1">
          <mxGeometry width="50" height="50" relative="1" as="geometry">
            <mxPoint x="270" y="379" as="sourcePoint" />
            <mxPoint x="540" y="279" as="targetPoint" />
          </mxGeometry>
        </mxCell>
        <mxCell id="0erdpwms0wv-roHKmE2V-52" value="" style="endArrow=none;html=1;rounded=0;entryX=1;entryY=0.5;entryDx=0;entryDy=0;exitX=0;exitY=0.5;exitDx=0;exitDy=0;" parent="0erdpwms0wv-roHKmE2V-94" source="UZvihDDz6vG9pODjjH-z-27" target="0erdpwms0wv-roHKmE2V-40" edge="1">
          <mxGeometry width="50" height="50" relative="1" as="geometry">
            <mxPoint x="330" y="349" as="sourcePoint" />
            <mxPoint x="540" y="279" as="targetPoint" />
          </mxGeometry>
        </mxCell>
        <mxCell id="0erdpwms0wv-roHKmE2V-53" value="" style="endArrow=none;html=1;rounded=0;entryX=1;entryY=0.5;entryDx=0;entryDy=0;exitX=0;exitY=0.5;exitDx=0;exitDy=0;" parent="0erdpwms0wv-roHKmE2V-94" source="UZvihDDz6vG9pODjjH-z-27" target="0erdpwms0wv-roHKmE2V-26" edge="1">
          <mxGeometry width="50" height="50" relative="1" as="geometry">
            <mxPoint x="490" y="329" as="sourcePoint" />
            <mxPoint x="540" y="279" as="targetPoint" />
          </mxGeometry>
        </mxCell>
        <mxCell id="0erdpwms0wv-roHKmE2V-54" value="" style="endArrow=none;html=1;rounded=0;entryX=1;entryY=0.5;entryDx=0;entryDy=0;exitX=0;exitY=0.5;exitDx=0;exitDy=0;" parent="0erdpwms0wv-roHKmE2V-94" source="UZvihDDz6vG9pODjjH-z-27" target="0erdpwms0wv-roHKmE2V-27" edge="1">
          <mxGeometry width="50" height="50" relative="1" as="geometry">
            <mxPoint x="490" y="329" as="sourcePoint" />
            <mxPoint x="540" y="279" as="targetPoint" />
          </mxGeometry>
        </mxCell>
        <mxCell id="0erdpwms0wv-roHKmE2V-55" value="" style="endArrow=none;html=1;rounded=0;entryX=1;entryY=0.5;entryDx=0;entryDy=0;exitX=0;exitY=0.5;exitDx=0;exitDy=0;" parent="0erdpwms0wv-roHKmE2V-94" source="UZvihDDz6vG9pODjjH-z-29" target="0erdpwms0wv-roHKmE2V-7" edge="1">
          <mxGeometry width="50" height="50" relative="1" as="geometry">
            <mxPoint x="490" y="549" as="sourcePoint" />
            <mxPoint x="540" y="499" as="targetPoint" />
          </mxGeometry>
        </mxCell>
        <mxCell id="0erdpwms0wv-roHKmE2V-56" value="" style="endArrow=none;html=1;rounded=0;entryX=1;entryY=0.5;entryDx=0;entryDy=0;exitX=0;exitY=0.5;exitDx=0;exitDy=0;" parent="0erdpwms0wv-roHKmE2V-94" source="UZvihDDz6vG9pODjjH-z-29" target="0erdpwms0wv-roHKmE2V-6" edge="1">
          <mxGeometry width="50" height="50" relative="1" as="geometry">
            <mxPoint x="490" y="549" as="sourcePoint" />
            <mxPoint x="540" y="499" as="targetPoint" />
          </mxGeometry>
        </mxCell>
        <mxCell id="0erdpwms0wv-roHKmE2V-57" value="" style="endArrow=none;html=1;rounded=0;entryX=1;entryY=0.5;entryDx=0;entryDy=0;exitX=0;exitY=0.5;exitDx=0;exitDy=0;" parent="0erdpwms0wv-roHKmE2V-94" source="UZvihDDz6vG9pODjjH-z-29" target="0erdpwms0wv-roHKmE2V-10" edge="1">
          <mxGeometry width="50" height="50" relative="1" as="geometry">
            <mxPoint x="490" y="549" as="sourcePoint" />
            <mxPoint x="540" y="499" as="targetPoint" />
          </mxGeometry>
        </mxCell>
        <mxCell id="0erdpwms0wv-roHKmE2V-58" value="" style="endArrow=none;html=1;rounded=0;entryX=1;entryY=0.5;entryDx=0;entryDy=0;exitX=0;exitY=0.5;exitDx=0;exitDy=0;" parent="0erdpwms0wv-roHKmE2V-94" source="UZvihDDz6vG9pODjjH-z-29" target="0erdpwms0wv-roHKmE2V-9" edge="1">
          <mxGeometry width="50" height="50" relative="1" as="geometry">
            <mxPoint x="490" y="549" as="sourcePoint" />
            <mxPoint x="540" y="499" as="targetPoint" />
          </mxGeometry>
        </mxCell>
        <mxCell id="0erdpwms0wv-roHKmE2V-59" value="" style="endArrow=none;html=1;rounded=0;entryX=1;entryY=0.5;entryDx=0;entryDy=0;exitX=0;exitY=0.5;exitDx=0;exitDy=0;" parent="0erdpwms0wv-roHKmE2V-94" source="UZvihDDz6vG9pODjjH-z-29" target="0erdpwms0wv-roHKmE2V-11" edge="1">
          <mxGeometry width="50" height="50" relative="1" as="geometry">
            <mxPoint x="490" y="679" as="sourcePoint" />
            <mxPoint x="540" y="629" as="targetPoint" />
          </mxGeometry>
        </mxCell>
        <mxCell id="0erdpwms0wv-roHKmE2V-60" value="" style="endArrow=none;html=1;rounded=0;entryX=1;entryY=0.5;entryDx=0;entryDy=0;exitX=0;exitY=0.5;exitDx=0;exitDy=0;" parent="0erdpwms0wv-roHKmE2V-94" source="UZvihDDz6vG9pODjjH-z-29" target="0erdpwms0wv-roHKmE2V-12" edge="1">
          <mxGeometry width="50" height="50" relative="1" as="geometry">
            <mxPoint x="490" y="679" as="sourcePoint" />
            <mxPoint x="540" y="629" as="targetPoint" />
          </mxGeometry>
        </mxCell>
        <mxCell id="0erdpwms0wv-roHKmE2V-61" value="" style="endArrow=none;html=1;rounded=0;entryX=1;entryY=0.5;entryDx=0;entryDy=0;exitX=0;exitY=0.5;exitDx=0;exitDy=0;" parent="0erdpwms0wv-roHKmE2V-94" source="UZvihDDz6vG9pODjjH-z-29" target="0erdpwms0wv-roHKmE2V-14" edge="1">
          <mxGeometry width="50" height="50" relative="1" as="geometry">
            <mxPoint x="490" y="679" as="sourcePoint" />
            <mxPoint x="540" y="629" as="targetPoint" />
          </mxGeometry>
        </mxCell>
        <mxCell id="0erdpwms0wv-roHKmE2V-64" value="" style="endArrow=none;html=1;rounded=0;entryX=0;entryY=0.5;entryDx=0;entryDy=0;exitX=1;exitY=0.5;exitDx=0;exitDy=0;" parent="0erdpwms0wv-roHKmE2V-94" source="VUBh9zfn_N3HPbpOxdJ6-37" target="VUBh9zfn_N3HPbpOxdJ6-49" edge="1">
          <mxGeometry width="50" height="50" relative="1" as="geometry">
            <mxPoint x="490" y="829" as="sourcePoint" />
            <mxPoint x="540" y="779" as="targetPoint" />
          </mxGeometry>
        </mxCell>
        <mxCell id="0erdpwms0wv-roHKmE2V-65" value="" style="endArrow=none;html=1;rounded=0;exitX=1;exitY=0.5;exitDx=0;exitDy=0;entryX=0;entryY=0.5;entryDx=0;entryDy=0;" parent="0erdpwms0wv-roHKmE2V-94" source="VUBh9zfn_N3HPbpOxdJ6-37" target="VUBh9zfn_N3HPbpOxdJ6-41" edge="1">
          <mxGeometry width="50" height="50" relative="1" as="geometry">
            <mxPoint x="490" y="829" as="sourcePoint" />
            <mxPoint x="540" y="779" as="targetPoint" />
          </mxGeometry>
        </mxCell>
        <mxCell id="0erdpwms0wv-roHKmE2V-66" value="" style="endArrow=none;html=1;rounded=0;entryX=0;entryY=0.5;entryDx=0;entryDy=0;exitX=1;exitY=0.5;exitDx=0;exitDy=0;" parent="0erdpwms0wv-roHKmE2V-94" source="VUBh9zfn_N3HPbpOxdJ6-37" target="VUBh9zfn_N3HPbpOxdJ6-43" edge="1">
          <mxGeometry width="50" height="50" relative="1" as="geometry">
            <mxPoint x="490" y="869" as="sourcePoint" />
            <mxPoint x="540" y="819" as="targetPoint" />
          </mxGeometry>
        </mxCell>
        <mxCell id="0erdpwms0wv-roHKmE2V-67" value="" style="endArrow=none;html=1;rounded=0;entryX=0;entryY=0.5;entryDx=0;entryDy=0;exitX=1;exitY=0.5;exitDx=0;exitDy=0;" parent="0erdpwms0wv-roHKmE2V-94" source="VUBh9zfn_N3HPbpOxdJ6-37" target="VUBh9zfn_N3HPbpOxdJ6-50" edge="1">
          <mxGeometry width="50" height="50" relative="1" as="geometry">
            <mxPoint x="390" y="889" as="sourcePoint" />
            <mxPoint x="540" y="819" as="targetPoint" />
          </mxGeometry>
        </mxCell>
        <mxCell id="0erdpwms0wv-roHKmE2V-68" value="" style="endArrow=none;html=1;rounded=0;exitX=1;exitY=0.5;exitDx=0;exitDy=0;entryX=0;entryY=0.5;entryDx=0;entryDy=0;" parent="0erdpwms0wv-roHKmE2V-94" source="VUBh9zfn_N3HPbpOxdJ6-37" target="VUBh9zfn_N3HPbpOxdJ6-42" edge="1">
          <mxGeometry width="50" height="50" relative="1" as="geometry">
            <mxPoint x="490" y="869" as="sourcePoint" />
            <mxPoint x="540" y="819" as="targetPoint" />
          </mxGeometry>
        </mxCell>
        <mxCell id="0erdpwms0wv-roHKmE2V-69" value="" style="endArrow=none;html=1;rounded=0;entryX=1;entryY=0.5;entryDx=0;entryDy=0;exitX=0;exitY=0.5;exitDx=0;exitDy=0;" parent="0erdpwms0wv-roHKmE2V-94" source="0erdpwms0wv-roHKmE2V-23" target="VUBh9zfn_N3HPbpOxdJ6-29" edge="1">
          <mxGeometry width="50" height="50" relative="1" as="geometry">
            <mxPoint x="880" y="269" as="sourcePoint" />
            <mxPoint x="930" y="219" as="targetPoint" />
          </mxGeometry>
        </mxCell>
        <mxCell id="0erdpwms0wv-roHKmE2V-70" value="" style="endArrow=none;html=1;rounded=0;entryX=1;entryY=0.5;entryDx=0;entryDy=0;exitX=0;exitY=0.5;exitDx=0;exitDy=0;" parent="0erdpwms0wv-roHKmE2V-94" source="0erdpwms0wv-roHKmE2V-23" target="VUBh9zfn_N3HPbpOxdJ6-30" edge="1">
          <mxGeometry width="50" height="50" relative="1" as="geometry">
            <mxPoint x="880" y="269" as="sourcePoint" />
            <mxPoint x="930" y="219" as="targetPoint" />
          </mxGeometry>
        </mxCell>
        <mxCell id="0erdpwms0wv-roHKmE2V-71" value="" style="endArrow=none;html=1;rounded=0;entryX=1;entryY=0.5;entryDx=0;entryDy=0;exitX=0;exitY=0.5;exitDx=0;exitDy=0;" parent="0erdpwms0wv-roHKmE2V-94" source="0erdpwms0wv-roHKmE2V-23" target="VUBh9zfn_N3HPbpOxdJ6-31" edge="1">
          <mxGeometry width="50" height="50" relative="1" as="geometry">
            <mxPoint x="880" y="269" as="sourcePoint" />
            <mxPoint x="930" y="219" as="targetPoint" />
          </mxGeometry>
        </mxCell>
        <mxCell id="0erdpwms0wv-roHKmE2V-72" value="" style="endArrow=none;html=1;rounded=0;entryX=1;entryY=0.5;entryDx=0;entryDy=0;exitX=0;exitY=0.5;exitDx=0;exitDy=0;" parent="0erdpwms0wv-roHKmE2V-94" source="0erdpwms0wv-roHKmE2V-23" target="VUBh9zfn_N3HPbpOxdJ6-36" edge="1">
          <mxGeometry width="50" height="50" relative="1" as="geometry">
            <mxPoint x="880" y="269" as="sourcePoint" />
            <mxPoint x="930" y="219" as="targetPoint" />
          </mxGeometry>
        </mxCell>
        <mxCell id="0erdpwms0wv-roHKmE2V-73" value="" style="endArrow=none;html=1;rounded=0;entryX=0;entryY=0.5;entryDx=0;entryDy=0;exitX=1;exitY=0.5;exitDx=0;exitDy=0;" parent="0erdpwms0wv-roHKmE2V-94" source="0erdpwms0wv-roHKmE2V-25" target="0erdpwms0wv-roHKmE2V-23" edge="1">
          <mxGeometry width="50" height="50" relative="1" as="geometry">
            <mxPoint x="880" y="269" as="sourcePoint" />
            <mxPoint x="930" y="219" as="targetPoint" />
          </mxGeometry>
        </mxCell>
        <mxCell id="0erdpwms0wv-roHKmE2V-74" value="" style="endArrow=none;html=1;rounded=0;entryX=0.5;entryY=1;entryDx=0;entryDy=0;exitX=0.5;exitY=0;exitDx=0;exitDy=0;" parent="0erdpwms0wv-roHKmE2V-94" source="UZvihDDz6vG9pODjjH-z-43" target="0erdpwms0wv-roHKmE2V-23" edge="1">
          <mxGeometry width="50" height="50" relative="1" as="geometry">
            <mxPoint x="880" y="269" as="sourcePoint" />
            <mxPoint x="930" y="219" as="targetPoint" />
          </mxGeometry>
        </mxCell>
        <mxCell id="0erdpwms0wv-roHKmE2V-75" value="" style="endArrow=none;html=1;rounded=0;entryX=0.5;entryY=1;entryDx=0;entryDy=0;exitX=0.5;exitY=0;exitDx=0;exitDy=0;" parent="0erdpwms0wv-roHKmE2V-94" source="UZvihDDz6vG9pODjjH-z-32" target="UZvihDDz6vG9pODjjH-z-43" edge="1">
          <mxGeometry width="50" height="50" relative="1" as="geometry">
            <mxPoint x="850" y="479" as="sourcePoint" />
            <mxPoint x="900" y="429" as="targetPoint" />
          </mxGeometry>
        </mxCell>
        <mxCell id="0erdpwms0wv-roHKmE2V-76" value="" style="endArrow=none;html=1;rounded=0;entryX=0.5;entryY=1;entryDx=0;entryDy=0;" parent="0erdpwms0wv-roHKmE2V-94" source="0erdpwms0wv-roHKmE2V-31" target="UZvihDDz6vG9pODjjH-z-32" edge="1">
          <mxGeometry width="50" height="50" relative="1" as="geometry">
            <mxPoint x="965" y="529" as="sourcePoint" />
            <mxPoint x="900" y="429" as="targetPoint" />
          </mxGeometry>
        </mxCell>
        <mxCell id="0erdpwms0wv-roHKmE2V-78" value="" style="endArrow=none;html=1;rounded=0;entryX=0.5;entryY=1;entryDx=0;entryDy=0;exitX=0.5;exitY=0;exitDx=0;exitDy=0;" parent="0erdpwms0wv-roHKmE2V-94" source="0erdpwms0wv-roHKmE2V-24" target="0erdpwms0wv-roHKmE2V-31" edge="1">
          <mxGeometry width="50" height="50" relative="1" as="geometry">
            <mxPoint x="850" y="479" as="sourcePoint" />
            <mxPoint x="900" y="429" as="targetPoint" />
          </mxGeometry>
        </mxCell>
        <mxCell id="0erdpwms0wv-roHKmE2V-79" value="" style="endArrow=none;html=1;rounded=0;entryX=1;entryY=0.5;entryDx=0;entryDy=0;exitX=0;exitY=0.5;exitDx=0;exitDy=0;" parent="0erdpwms0wv-roHKmE2V-94" source="0erdpwms0wv-roHKmE2V-24" target="0erdpwms0wv-roHKmE2V-18" edge="1">
          <mxGeometry width="50" height="50" relative="1" as="geometry">
            <mxPoint x="850" y="679" as="sourcePoint" />
            <mxPoint x="900" y="629" as="targetPoint" />
          </mxGeometry>
        </mxCell>
        <mxCell id="0erdpwms0wv-roHKmE2V-80" value="" style="endArrow=none;html=1;rounded=0;exitX=1;exitY=0.5;exitDx=0;exitDy=0;entryX=0;entryY=0.5;entryDx=0;entryDy=0;" parent="0erdpwms0wv-roHKmE2V-94" source="0erdpwms0wv-roHKmE2V-19" target="0erdpwms0wv-roHKmE2V-24" edge="1">
          <mxGeometry width="50" height="50" relative="1" as="geometry">
            <mxPoint x="850" y="679" as="sourcePoint" />
            <mxPoint x="900" y="689" as="targetPoint" />
          </mxGeometry>
        </mxCell>
        <mxCell id="0erdpwms0wv-roHKmE2V-81" value="" style="endArrow=none;html=1;rounded=0;exitX=1;exitY=0.5;exitDx=0;exitDy=0;entryX=0;entryY=0.5;entryDx=0;entryDy=0;" parent="0erdpwms0wv-roHKmE2V-94" source="0erdpwms0wv-roHKmE2V-20" target="0erdpwms0wv-roHKmE2V-24" edge="1">
          <mxGeometry width="50" height="50" relative="1" as="geometry">
            <mxPoint x="860" y="699" as="sourcePoint" />
            <mxPoint x="910" y="649" as="targetPoint" />
          </mxGeometry>
        </mxCell>
        <mxCell id="0erdpwms0wv-roHKmE2V-82" value="" style="endArrow=none;html=1;rounded=0;exitX=1;exitY=0.5;exitDx=0;exitDy=0;entryX=0;entryY=0.5;entryDx=0;entryDy=0;" parent="0erdpwms0wv-roHKmE2V-94" source="0erdpwms0wv-roHKmE2V-21" target="0erdpwms0wv-roHKmE2V-24" edge="1">
          <mxGeometry width="50" height="50" relative="1" as="geometry">
            <mxPoint x="860" y="699" as="sourcePoint" />
            <mxPoint x="910" y="649" as="targetPoint" />
          </mxGeometry>
        </mxCell>
        <mxCell id="0erdpwms0wv-roHKmE2V-83" value="" style="endArrow=none;html=1;rounded=0;exitX=1;exitY=0.5;exitDx=0;exitDy=0;entryX=0;entryY=0.5;entryDx=0;entryDy=0;" parent="0erdpwms0wv-roHKmE2V-94" source="0erdpwms0wv-roHKmE2V-22" target="0erdpwms0wv-roHKmE2V-24" edge="1">
          <mxGeometry width="50" height="50" relative="1" as="geometry">
            <mxPoint x="860" y="789" as="sourcePoint" />
            <mxPoint x="910" y="739" as="targetPoint" />
          </mxGeometry>
        </mxCell>
        <mxCell id="0erdpwms0wv-roHKmE2V-84" value="" style="endArrow=none;html=1;rounded=0;entryX=0;entryY=0.5;entryDx=0;entryDy=0;exitX=1;exitY=0.5;exitDx=0;exitDy=0;" parent="0erdpwms0wv-roHKmE2V-94" source="UZvihDDz6vG9pODjjH-z-32" target="VUBh9zfn_N3HPbpOxdJ6-15" edge="1">
          <mxGeometry width="50" height="50" relative="1" as="geometry">
            <mxPoint x="1120" y="349" as="sourcePoint" />
            <mxPoint x="1170" y="299" as="targetPoint" />
          </mxGeometry>
        </mxCell>
        <mxCell id="0erdpwms0wv-roHKmE2V-85" value="" style="endArrow=none;html=1;rounded=0;entryX=0;entryY=0.5;entryDx=0;entryDy=0;exitX=1;exitY=0.5;exitDx=0;exitDy=0;" parent="0erdpwms0wv-roHKmE2V-94" source="UZvihDDz6vG9pODjjH-z-32" target="VUBh9zfn_N3HPbpOxdJ6-18" edge="1">
          <mxGeometry width="50" height="50" relative="1" as="geometry">
            <mxPoint x="1120" y="349" as="sourcePoint" />
            <mxPoint x="1170" y="299" as="targetPoint" />
          </mxGeometry>
        </mxCell>
        <mxCell id="0erdpwms0wv-roHKmE2V-86" value="" style="endArrow=none;html=1;rounded=0;entryX=0;entryY=0.5;entryDx=0;entryDy=0;exitX=1;exitY=0.5;exitDx=0;exitDy=0;" parent="0erdpwms0wv-roHKmE2V-94" source="UZvihDDz6vG9pODjjH-z-32" target="VUBh9zfn_N3HPbpOxdJ6-17" edge="1">
          <mxGeometry width="50" height="50" relative="1" as="geometry">
            <mxPoint x="1120" y="349" as="sourcePoint" />
            <mxPoint x="1170" y="299" as="targetPoint" />
          </mxGeometry>
        </mxCell>
        <mxCell id="0erdpwms0wv-roHKmE2V-87" value="" style="endArrow=none;html=1;rounded=0;entryX=0;entryY=0.5;entryDx=0;entryDy=0;exitX=1;exitY=0.5;exitDx=0;exitDy=0;" parent="0erdpwms0wv-roHKmE2V-94" source="UZvihDDz6vG9pODjjH-z-32" target="VUBh9zfn_N3HPbpOxdJ6-16" edge="1">
          <mxGeometry width="50" height="50" relative="1" as="geometry">
            <mxPoint x="1120" y="469" as="sourcePoint" />
            <mxPoint x="1170" y="419" as="targetPoint" />
          </mxGeometry>
        </mxCell>
        <mxCell id="0erdpwms0wv-roHKmE2V-88" value="" style="endArrow=none;html=1;rounded=0;entryX=0;entryY=0.5;entryDx=0;entryDy=0;exitX=1;exitY=0.5;exitDx=0;exitDy=0;" parent="0erdpwms0wv-roHKmE2V-94" source="UZvihDDz6vG9pODjjH-z-32" target="VUBh9zfn_N3HPbpOxdJ6-20" edge="1">
          <mxGeometry width="50" height="50" relative="1" as="geometry">
            <mxPoint x="1120" y="469" as="sourcePoint" />
            <mxPoint x="1170" y="419" as="targetPoint" />
          </mxGeometry>
        </mxCell>
        <mxCell id="0erdpwms0wv-roHKmE2V-89" value="" style="endArrow=none;html=1;rounded=0;entryX=0;entryY=0.5;entryDx=0;entryDy=0;exitX=1;exitY=0.5;exitDx=0;exitDy=0;" parent="0erdpwms0wv-roHKmE2V-94" source="UZvihDDz6vG9pODjjH-z-32" target="VUBh9zfn_N3HPbpOxdJ6-19" edge="1">
          <mxGeometry width="50" height="50" relative="1" as="geometry">
            <mxPoint x="1120" y="469" as="sourcePoint" />
            <mxPoint x="1170" y="419" as="targetPoint" />
          </mxGeometry>
        </mxCell>
        <mxCell id="0erdpwms0wv-roHKmE2V-90" value="" style="endArrow=none;html=1;rounded=0;entryX=0;entryY=0.5;entryDx=0;entryDy=0;exitX=1;exitY=0.5;exitDx=0;exitDy=0;" parent="0erdpwms0wv-roHKmE2V-94" source="UZvihDDz6vG9pODjjH-z-32" target="0erdpwms0wv-roHKmE2V-2" edge="1">
          <mxGeometry width="50" height="50" relative="1" as="geometry">
            <mxPoint x="1120" y="469" as="sourcePoint" />
            <mxPoint x="1170" y="419" as="targetPoint" />
          </mxGeometry>
        </mxCell>
        <mxCell id="0erdpwms0wv-roHKmE2V-91" value="" style="endArrow=none;html=1;rounded=0;entryX=0;entryY=0.5;entryDx=0;entryDy=0;exitX=1;exitY=0.5;exitDx=0;exitDy=0;" parent="0erdpwms0wv-roHKmE2V-94" source="UZvihDDz6vG9pODjjH-z-32" target="0erdpwms0wv-roHKmE2V-3" edge="1">
          <mxGeometry width="50" height="50" relative="1" as="geometry">
            <mxPoint x="1030" y="379" as="sourcePoint" />
            <mxPoint x="1170" y="439" as="targetPoint" />
          </mxGeometry>
        </mxCell>
        <mxCell id="0erdpwms0wv-roHKmE2V-92" value="" style="endArrow=none;html=1;rounded=0;exitX=0;exitY=0.5;exitDx=0;exitDy=0;entryX=1;entryY=0.5;entryDx=0;entryDy=0;" parent="0erdpwms0wv-roHKmE2V-94" source="0erdpwms0wv-roHKmE2V-4" target="UZvihDDz6vG9pODjjH-z-32" edge="1">
          <mxGeometry width="50" height="50" relative="1" as="geometry">
            <mxPoint x="1120" y="579" as="sourcePoint" />
            <mxPoint x="1030" y="379" as="targetPoint" />
          </mxGeometry>
        </mxCell>
        <mxCell id="0erdpwms0wv-roHKmE2V-93" value="" style="endArrow=none;html=1;rounded=0;entryX=0;entryY=0.5;entryDx=0;entryDy=0;exitX=1;exitY=0.5;exitDx=0;exitDy=0;" parent="0erdpwms0wv-roHKmE2V-94" source="UZvihDDz6vG9pODjjH-z-32" target="0erdpwms0wv-roHKmE2V-5" edge="1">
          <mxGeometry width="50" height="50" relative="1" as="geometry">
            <mxPoint x="1120" y="579" as="sourcePoint" />
            <mxPoint x="1170" y="529" as="targetPoint" />
          </mxGeometry>
        </mxCell>
        <mxCell id="bJHpRXMZhOdwonqcprI6-27" value="1" style="text;html=1;strokeColor=none;fillColor=none;align=center;verticalAlign=middle;whiteSpace=wrap;rounded=0;labelBackgroundColor=none;" vertex="1" parent="0erdpwms0wv-roHKmE2V-94">
          <mxGeometry x="402" y="614" width="20" height="20" as="geometry" />
        </mxCell>
        <mxCell id="bJHpRXMZhOdwonqcprI6-36" value="1" style="text;html=1;strokeColor=none;fillColor=none;align=center;verticalAlign=middle;whiteSpace=wrap;rounded=0;labelBackgroundColor=none;" vertex="1" parent="0erdpwms0wv-roHKmE2V-94">
          <mxGeometry x="910" y="420" width="20" height="20" as="geometry" />
        </mxCell>
        <mxCell id="bJHpRXMZhOdwonqcprI6-37" value="1" style="text;html=1;strokeColor=none;fillColor=none;align=center;verticalAlign=middle;whiteSpace=wrap;rounded=0;labelBackgroundColor=none;" vertex="1" parent="0erdpwms0wv-roHKmE2V-94">
          <mxGeometry x="970" y="420" width="20" height="20" as="geometry" />
        </mxCell>
        <mxCell id="bJHpRXMZhOdwonqcprI6-38" value="1" style="text;html=1;strokeColor=none;fillColor=none;align=center;verticalAlign=middle;whiteSpace=wrap;rounded=0;labelBackgroundColor=none;" vertex="1" parent="0erdpwms0wv-roHKmE2V-94">
          <mxGeometry x="980" y="333" width="20" height="20" as="geometry" />
        </mxCell>
        <mxCell id="bJHpRXMZhOdwonqcprI6-39" value="N" style="text;html=1;strokeColor=none;fillColor=none;align=center;verticalAlign=middle;whiteSpace=wrap;rounded=0;labelBackgroundColor=none;" vertex="1" parent="0erdpwms0wv-roHKmE2V-94">
          <mxGeometry x="990" y="619" width="20" height="20" as="geometry" />
        </mxCell>
        <mxCell id="bJHpRXMZhOdwonqcprI6-40" value="1" style="text;html=1;strokeColor=none;fillColor=none;align=center;verticalAlign=middle;whiteSpace=wrap;rounded=0;labelBackgroundColor=none;" vertex="1" parent="0erdpwms0wv-roHKmE2V-94">
          <mxGeometry x="292" y="584" width="20" height="20" as="geometry" />
        </mxCell>
        <mxCell id="bJHpRXMZhOdwonqcprI6-44" value="1" style="text;html=1;strokeColor=none;fillColor=none;align=center;verticalAlign=middle;whiteSpace=wrap;rounded=0;labelBackgroundColor=none;" vertex="1" parent="0erdpwms0wv-roHKmE2V-94">
          <mxGeometry x="342" y="829" width="20" height="20" as="geometry" />
        </mxCell>
        <mxCell id="0erdpwms0wv-roHKmE2V-99" value="1" style="text;html=1;strokeColor=none;fillColor=none;align=center;verticalAlign=middle;whiteSpace=wrap;rounded=0;labelBackgroundColor=none;" parent="1" vertex="1">
          <mxGeometry x="82" y="1427" width="20" height="20" as="geometry" />
        </mxCell>
        <mxCell id="bJHpRXMZhOdwonqcprI6-3" value="&amp;nbsp;id_transportista" style="ellipse;whiteSpace=wrap;html=1;labelBackgroundColor=none;fillColor=#e1d5e7;strokeColor=#9673a6;" vertex="1" parent="1">
          <mxGeometry x="690" y="1700" width="130" height="30" as="geometry" />
        </mxCell>
        <mxCell id="bJHpRXMZhOdwonqcprI6-12" value="" style="endArrow=none;html=1;rounded=0;exitX=1;exitY=0.5;exitDx=0;exitDy=0;" edge="1" parent="1" source="UZvihDDz6vG9pODjjH-z-29">
          <mxGeometry width="50" height="50" relative="1" as="geometry">
            <mxPoint x="430" y="1100" as="sourcePoint" />
            <mxPoint x="560" y="1560" as="targetPoint" />
            <Array as="points">
              <mxPoint x="560" y="1090" />
            </Array>
          </mxGeometry>
        </mxCell>
        <mxCell id="bJHpRXMZhOdwonqcprI6-14" value="" style="endArrow=none;html=1;rounded=0;entryX=0.25;entryY=1;entryDx=0;entryDy=0;" edge="1" parent="1" source="bJHpRXMZhOdwonqcprI6-2" target="UZvihDDz6vG9pODjjH-z-32">
          <mxGeometry width="50" height="50" relative="1" as="geometry">
            <mxPoint x="590" y="1570" as="sourcePoint" />
            <mxPoint x="840" y="890" as="targetPoint" />
            <Array as="points">
              <mxPoint x="590" y="910" />
              <mxPoint x="740" y="910" />
              <mxPoint x="865" y="910" />
            </Array>
          </mxGeometry>
        </mxCell>
        <mxCell id="bJHpRXMZhOdwonqcprI6-2" value="registros" style="rounded=0;whiteSpace=wrap;html=1;labelBackgroundColor=none;fillColor=#fff2cc;strokeColor=#d6b656;" vertex="1" parent="1">
          <mxGeometry x="520" y="1560" width="130" height="60" as="geometry" />
        </mxCell>
        <mxCell id="bJHpRXMZhOdwonqcprI6-4" value="id_usuario" style="ellipse;whiteSpace=wrap;html=1;labelBackgroundColor=none;fillColor=#e1d5e7;strokeColor=#9673a6;" vertex="1" parent="1">
          <mxGeometry x="340" y="1700" width="130" height="30" as="geometry" />
        </mxCell>
        <mxCell id="bJHpRXMZhOdwonqcprI6-5" value="id_registro" style="ellipse;whiteSpace=wrap;html=1;labelBackgroundColor=none;fillColor=#d5e8d4;strokeColor=#82b366;" vertex="1" parent="1">
          <mxGeometry x="520" y="1700" width="130" height="30" as="geometry" />
        </mxCell>
        <mxCell id="bJHpRXMZhOdwonqcprI6-25" value="" style="endArrow=none;html=1;rounded=0;exitX=0.5;exitY=0;exitDx=0;exitDy=0;entryX=0.5;entryY=0;entryDx=0;entryDy=0;" edge="1" parent="1" source="bJHpRXMZhOdwonqcprI6-5" target="bJHpRXMZhOdwonqcprI6-3">
          <mxGeometry width="50" height="50" relative="1" as="geometry">
            <mxPoint x="650" y="1675" as="sourcePoint" />
            <mxPoint x="700" y="1625" as="targetPoint" />
            <Array as="points">
              <mxPoint x="585" y="1620" />
            </Array>
          </mxGeometry>
        </mxCell>
        <mxCell id="bJHpRXMZhOdwonqcprI6-26" value="" style="endArrow=none;html=1;rounded=0;exitX=0.5;exitY=0;exitDx=0;exitDy=0;" edge="1" parent="1" source="bJHpRXMZhOdwonqcprI6-4">
          <mxGeometry width="50" height="50" relative="1" as="geometry">
            <mxPoint x="535" y="1660" as="sourcePoint" />
            <mxPoint x="580" y="1620" as="targetPoint" />
          </mxGeometry>
        </mxCell>
        <mxCell id="bJHpRXMZhOdwonqcprI6-31" value="1" style="text;html=1;strokeColor=none;fillColor=none;align=center;verticalAlign=middle;whiteSpace=wrap;rounded=0;labelBackgroundColor=none;" vertex="1" parent="1">
          <mxGeometry x="530" y="1530" width="20" height="20" as="geometry" />
        </mxCell>
        <mxCell id="bJHpRXMZhOdwonqcprI6-35" value="1" style="text;html=1;strokeColor=none;fillColor=none;align=center;verticalAlign=middle;whiteSpace=wrap;rounded=0;labelBackgroundColor=none;" vertex="1" parent="1">
          <mxGeometry x="590" y="1530" width="20" height="20" as="geometry" />
        </mxCell>
      </root>
    </mxGraphModel>
  </diagram>
</mxfile>
